<?xml version="1.0" standalone="no"?>
<!DOCTYPE svg PUBLIC "-//W3C//DTD SVG 20010904//EN"
 "http://www.w3.org/TR/2001/REC-SVG-20010904/DTD/svg10.dtd">
<svg version="1.0" xmlns="http://www.w3.org/2000/svg"
 width="300.000000pt" height="206.000000pt" viewBox="0 0 300.000000 206.000000"
 preserveAspectRatio="xMidYMid meet">
<metadata>
Created by potrace 1.10, written by Peter Selinger 2001-2011
</metadata>
<g transform="translate(0.000000,206.000000) scale(0.100000,-0.100000)"
fill="#000000" stroke="none">
<path d="M1273 2036 c-51 -16 -99 -45 -178 -106 -34 -26 -79 -53 -100 -60 -59
-18 -118 -55 -151 -92 -44 -50 -150 -272 -179 -373 -51 -178 -54 -282 -13
-408 24 -75 57 -135 112 -203 43 -54 149 -144 170 -144 6 0 19 -12 28 -27 32
-54 89 -112 149 -152 75 -50 101 -53 51 -6 l-37 36 40 -21 c53 -27 110 -25
171 5 36 18 83 28 179 39 111 13 139 20 200 50 83 42 158 104 195 163 21 32
29 39 34 28 3 -9 14 -15 23 -13 13 2 19 -4 21 -22 2 -23 1 -23 -11 -8 -13 16
-15 16 -27 -7 -19 -36 1 -56 30 -30 20 18 20 18 20 -39 0 -44 3 -54 13 -46 6
5 24 19 39 30 14 11 31 35 37 52 8 27 8 29 -2 14 -25 -38 -45 -61 -51 -56 -3
3 2 28 10 55 16 52 25 225 12 225 -5 0 -8 -34 -8 -75 0 -80 -16 -175 -30 -175
-5 0 -14 26 -20 58 -7 31 -19 70 -27 85 -13 26 -13 31 3 48 14 15 15 21 4 34
-19 23 -32 4 -35 -50 -1 -27 2 -40 7 -33 4 7 8 9 8 5 0 -5 -11 -20 -24 -35
-14 -15 -46 -51 -72 -79 -54 -61 -152 -126 -215 -143 -74 -21 -241 -37 -299
-30 l-55 7 50 2 c28 1 59 6 70 11 18 7 17 8 -10 15 -89 21 -262 91 -251 102 2
2 25 -3 50 -11 51 -18 104 -20 125 -7 15 10 7 16 -34 25 -45 10 -120 70 -158
126 -34 50 -34 50 -20 102 15 59 18 223 3 197 -5 -8 -10 -50 -11 -93 -2 -64
-14 -156 -18 -136 -1 3 -17 41 -36 85 -38 87 -48 89 -15 3 53 -137 126 -240
199 -278 34 -18 34 -19 10 -20 -28 0 -146 37 -169 54 -8 6 -6 1 4 -12 11 -12
24 -22 29 -22 6 0 20 -9 31 -19 28 -25 129 -76 186 -92 l45 -14 -60 -5 c-58
-5 -59 -5 -30 -17 17 -7 39 -13 50 -15 19 -4 19 -5 -3 -17 -54 -30 -178 -16
-223 25 -24 21 -25 7 -1 -19 36 -41 -21 -1 -64 45 -64 68 -89 108 -112 178
-22 66 -53 249 -45 263 2 4 13 7 24 7 10 0 49 22 86 48 209 148 445 280 579
323 38 12 73 24 79 27 13 8 38 11 124 14 68 2 75 0 89 -21 9 -12 52 -47 97
-76 108 -72 199 -169 241 -260 32 -70 70 -255 53 -255 -5 0 -9 -12 -9 -26 0
-14 -4 -23 -10 -19 -5 3 -10 21 -10 38 -1 70 -64 213 -124 282 -32 36 -31 32
12 -35 43 -66 82 -147 82 -168 0 -4 -9 7 -20 23 -31 46 -24 18 10 -42 l31 -54
-37 -44 c-20 -25 -38 -45 -40 -45 -2 0 1 12 6 26 11 29 11 125 0 169 -5 20 -8
-4 -9 -73 -1 -133 -8 -144 -209 -370 l-154 -172 -37 5 c-20 4 -56 10 -81 15
-25 6 -98 19 -162 30 -153 25 -170 30 -191 48 -14 13 -22 14 -36 5 -15 -9 -48
-1 -172 44 -161 57 -472 166 -668 234 -122 42 -198 49 -275 28 -46 -13 -88
-51 -80 -73 5 -12 0 -16 -19 -16 -38 0 -42 -17 -11 -45 24 -23 27 -33 26 -83
-2 -82 31 -125 118 -158 37 -14 105 -18 385 -24 439 -10 637 -20 653 -33 7 -6
25 -12 40 -13 25 -3 395 -75 399 -78 1 -1 -11 -28 -27 -61 -36 -74 -39 -94
-19 -108 30 -19 73 3 137 72 l63 68 82 -18 c45 -10 87 -18 94 -18 16 -1 56
121 42 130 -6 3 -34 9 -61 12 -28 4 -53 8 -55 11 -2 2 24 42 59 87 36 46 103
138 151 205 48 66 96 129 106 138 11 10 17 25 14 34 -3 12 -2 13 4 5 6 -8 25
3 66 39 70 61 189 130 254 148 93 26 260 173 351 309 56 85 55 109 -6 170 -65
65 -235 165 -264 155 -45 -14 -191 -175 -250 -276 -63 -109 -74 -139 -84 -248
-4 -45 -15 -92 -28 -118 l-22 -43 -12 71 c-19 113 -63 192 -162 290 -47 48
-115 103 -152 125 -55 32 -68 45 -68 65 0 36 -75 250 -120 345 -57 119 -94
157 -184 190 -43 16 -88 26 -104 23 -21 -3 -33 1 -41 14 -16 25 -71 58 -96 57
-11 0 -39 -6 -62 -13z m139 -45 c23 -27 38 -37 47 -32 35 22 180 -37 221 -89
58 -73 184 -370 156 -370 -6 0 -16 4 -21 9 -22 20 -128 41 -208 41 -206 0
-448 -134 -718 -398 -106 -104 -113 -123 -53 -148 32 -13 34 -18 35 -62 1 -26
1 -50 0 -55 -2 -16 33 -144 50 -179 29 -64 -4 -47 -99 49 -110 111 -152 192
-182 349 -10 53 -9 75 9 169 12 59 31 135 42 169 30 89 127 280 166 326 34 39
125 90 161 90 11 0 25 7 32 15 19 23 133 102 187 130 30 15 65 25 95 25 42 0
50 -4 80 -39z m1366 -529 c88 -53 152 -113 152 -143 0 -21 -15 -55 -34 -75 -6
-7 -31 -38 -56 -69 -63 -81 -192 -191 -248 -211 -122 -43 -223 -101 -284 -160
-10 -10 -20 -16 -22 -13 -8 9 -15 70 -7 65 11 -7 47 32 59 65 10 26 14 48 27
149 8 56 30 130 43 140 4 3 18 25 31 50 36 67 96 144 163 206 69 63 65 63 176
-4z m-1051 34 c28 -8 61 -20 73 -29 20 -14 20 -14 -11 -21 -17 -3 -46 -6 -63
-6 -56 0 -203 -49 -326 -108 -45 -21 -225 -123 -266 -150 -69 -45 -108 -72
-158 -109 -64 -46 -82 -51 -110 -30 -16 12 -11 19 56 84 206 201 401 327 567
368 74 18 173 18 238 1z m463 -794 c0 -5 -24 -41 -52 -80 -29 -40 -91 -124
-138 -188 -119 -163 -126 -170 -143 -156 -8 7 -17 8 -22 4 -12 -11 13 35 27
50 7 7 49 54 93 103 44 50 82 92 85 95 36 34 80 98 80 116 0 12 12 32 26 43
28 22 44 27 44 13z m-2000 -7 c0 -2 -14 -12 -30 -20 -17 -9 -36 -27 -42 -40
-14 -31 -30 -32 -26 -2 2 15 18 29 48 45 47 24 50 25 50 17z m260 -44 c307
-103 785 -273 794 -282 26 -25 -15 -16 -141 31 -76 29 -262 94 -413 147 -398
137 -438 152 -410 152 14 1 91 -21 170 -48z m76 -60 c159 -54 336 -115 394
-136 58 -20 131 -46 163 -57 32 -11 57 -22 55 -24 -2 -2 -121 25 -264 60 -271
66 -340 83 -489 115 -182 40 -247 52 -258 48 -7 -2 2 -7 18 -10 236 -48 356
-75 740 -167 137 -33 255 -58 263 -55 7 2 11 1 7 -4 -3 -5 13 -12 35 -16 36
-6 67 -25 40 -25 -25 0 -610 102 -747 130 -184 39 -336 79 -344 92 -4 6 -12 7
-19 3 -9 -5 -11 -4 -6 4 4 6 3 18 -3 24 -22 28 62 117 110 117 10 0 147 -45
305 -99z m-429 -16 c6 -14 7 -25 2 -25 -5 0 -9 5 -9 11 0 5 -5 7 -10 4 -12 -7
-40 12 -40 26 0 21 46 8 57 -16z m9 -50 c-18 -44 -17 -48 2 -24 l22 27 72 -23
c103 -33 419 -97 739 -150 151 -25 278 -45 283 -45 6 0 6 -4 0 -10 -6 -6 -49
-6 -119 -1 -61 5 -213 12 -340 16 -312 9 -567 41 -646 81 -22 11 -27 22 -33
69 -3 31 -4 61 -1 66 10 15 28 10 21 -6z m144 -176 c52 -10 127 -22 165 -28
66 -9 63 -10 -50 -7 -94 3 -133 8 -177 25 -32 12 -61 27 -64 33 -5 8 -1 9 12
4 10 -5 62 -16 114 -27z m1050 21 c0 -9 -37 -89 -46 -99 -1 -1 -7 0 -13 3 -14
9 28 106 45 106 8 0 14 -5 14 -10z m365 -75 c144 -24 356 -65 364 -71 3 -3
-30 -94 -35 -94 -8 0 -245 42 -279 49 -91 20 -430 91 -436 91 -3 0 3 20 14 43
l21 44 100 -19 c56 -10 169 -29 251 -43z m92 -152 c2 -6 -19 -35 -46 -65 -28
-29 -51 -56 -51 -60 0 -5 -4 -8 -9 -8 -13 0 10 78 34 118 15 25 26 32 44 30
14 -2 26 -8 28 -15z"/>
<path d="M2564 1345 c-62 -64 -104 -124 -104 -148 0 -28 30 -48 54 -35 23 12
39 -7 29 -37 -5 -16 -3 -18 8 -8 14 11 40 16 68 14 9 -1 11 -9 7 -27 -5 -19
-3 -25 6 -21 7 2 12 10 10 17 -4 17 31 69 77 114 28 28 38 43 31 51 -6 8 -7
30 -1 59 6 34 5 46 -3 43 -6 -3 -10 -10 -8 -17 1 -7 -9 -28 -24 -47 -40 -53
-146 -164 -151 -159 -8 8 54 90 111 145 54 53 66 82 23 60 -11 -7 -22 -8 -24
-3 -7 21 -19 32 -41 39 -20 6 -31 -1 -68 -40z m92 13 c4 -7 4 -10 -1 -6 -4 4
-20 -10 -35 -31 -45 -62 -139 -157 -140 -141 0 19 140 190 156 190 7 0 16 -6
20 -12z"/>
<path d="M2773 1274 c-7 -3 -10 -11 -7 -18 5 -12 -81 -125 -106 -141 -6 -3 -8
-11 -4 -16 10 -17 75 33 108 83 12 19 32 101 23 97 -1 0 -7 -3 -14 -5z"/>
<path d="M1800 1270 c0 -5 3 -10 8 -10 10 0 40 -57 48 -92 7 -33 1 -35 -33 -8
-28 22 -131 56 -140 46 -6 -5 10 -13 88 -40 92 -33 104 -66 22 -66 -93 0 -163
-64 -163 -148 0 -121 123 -197 230 -142 37 19 80 67 80 89 0 5 12 21 26 35 25
23 26 46 1 46 -7 0 -21 17 -32 37 -11 21 -34 47 -52 59 -22 15 -29 25 -22 35
18 29 9 80 -21 125 -31 45 -40 52 -40 34z m69 -206 c59 -35 82 -132 43 -183
-49 -67 -116 -85 -184 -52 -72 35 -99 112 -63 182 33 63 140 91 204 53z"/>
<path d="M1605 1238 l28 -22 -23 -18 c-27 -22 -89 -24 -155 -3 -61 18 -71 11
-19 -12 24 -11 64 -18 106 -18 59 0 71 -3 99 -27 37 -33 39 -34 39 -8 0 41
-63 129 -94 130 -5 0 4 -10 19 -22z"/>
<path d="M1465 1232 c4 -4 10 -7 13 -8 4 0 27 -6 51 -13 23 -7 45 -10 48 -7 3
3 -8 8 -23 11 -16 4 -38 10 -49 13 -33 10 -47 11 -40 4z"/>
<path d="M1368 1193 c28 -39 61 -67 107 -92 l40 -22 -90 4 c-72 3 -101 9 -144
30 -62 31 -79 29 -28 -2 80 -49 178 -64 273 -40 49 13 59 29 17 29 -41 0 -108
37 -147 81 -41 45 -56 52 -28 12z"/>
<path d="M1910 1155 c0 -6 25 -34 55 -64 30 -29 55 -49 55 -44 0 5 -25 33 -55
63 -30 30 -55 50 -55 45z"/>
<path d="M1203 1095 c60 -55 94 -61 40 -7 -20 20 -40 37 -44 37 -4 0 -11 3
-15 8 -4 4 -12 7 -18 7 -6 -1 11 -21 37 -45z"/>
<path d="M2029 1083 c-1 -24 -3 -50 -3 -58 -1 -8 3 -15 8 -15 13 0 17 51 7 85
-9 29 -9 29 -12 -12z"/>
<path d="M1621 798 c-13 -4 -32 -6 -42 -3 -28 9 -72 -19 -96 -62 -12 -21 -31
-47 -43 -58 -26 -24 -11 -35 48 -35 47 0 87 17 116 49 19 20 19 20 44 1 30
-24 72 -26 112 -5 32 17 40 35 15 35 -9 0 -34 17 -58 38 -50 46 -64 52 -96 40z
m78 -52 c51 -52 20 -76 -46 -36 -19 11 -35 15 -38 10 -3 -5 -26 -21 -50 -35
-30 -18 -51 -24 -69 -19 -25 6 -25 7 -10 33 34 57 44 65 92 72 81 11 87 10
121 -25z"/>
</g>
</svg>
